<?xml version="1.0" encoding="UTF-8" standalone="no"?>
<svg
   xmlns:dc="http://purl.org/dc/elements/1.1/"
   xmlns:cc="http://creativecommons.org/ns#"
   xmlns:rdf="http://www.w3.org/1999/02/22-rdf-syntax-ns#"
   xmlns:svg="http://www.w3.org/2000/svg"
   xmlns="http://www.w3.org/2000/svg"
   xmlns:sodipodi="http://sodipodi.sourceforge.net/DTD/sodipodi-0.dtd"
   xmlns:inkscape="http://www.inkscape.org/namespaces/inkscape"
   width="500.00003"
   height="173.13327"
   viewBox="0 0 132.29167 45.808179"
   version="1.1"
   id="svg8"
   inkscape:version="1.0.1 (3bc2e813f5, 2020-09-07)"
   sodipodi:docname="dibujo.svg">
  <defs
     id="defs2" />
  <sodipodi:namedview
     id="base"
     pagecolor="#ffffff"
     bordercolor="#666666"
     borderopacity="1.0"
     inkscape:pageopacity="0.0"
     inkscape:pageshadow="2"
     inkscape:zoom="0.60880403"
     inkscape:cx="-378.51558"
     inkscape:cy="518.74838"
     inkscape:document-units="mm"
     inkscape:current-layer="layer1"
     inkscape:document-rotation="0"
     showgrid="false"
     inkscape:window-width="1920"
     inkscape:window-height="1027"
     inkscape:window-x="-8"
     inkscape:window-y="-8"
     inkscape:window-maximized="1"
     units="px"
     width="300px" />
  <metadata
     id="metadata5">
    <rdf:RDF>
      <cc:Work
         rdf:about="">
        <dc:format>image/svg+xml</dc:format>
        <dc:type
           rdf:resource="http://purl.org/dc/dcmitype/StillImage" />
        <dc:title></dc:title>
      </cc:Work>
    </rdf:RDF>
  </metadata>
  <g
     inkscape:label="Capa 1"
     inkscape:groupmode="layer"
     id="layer1"
     transform="translate(-110.80124,-90.770309)">
    <g
       id="g978"
       transform="matrix(1.2724494,0,0,1.2724494,105.71144,90.770309)">
      <path
         fill="#c1694f"
         d="m 32,34 c 0,1.104 -0.896,2 -2,2 H 6 C 4.896,36 4,35.104 4,34 V 7 C 4,5.896 4.896,5 6,5 h 24 c 1.104,0 2,0.896 2,2 z"
         id="path955" />
      <path
         fill="#ffffff"
         d="m 29,32 c 0,0.553 -0.447,1 -1,1 H 8 C 7.448,33 7,32.553 7,32 V 9 C 7,8.448 7.448,8 8,8 h 20 c 0.553,0 1,0.448 1,1 z"
         id="path957" />
      <path
         fill="#ccd6dd"
         d="M 25,3 H 21 C 21,1.343 19.657,0 18,0 16.343,0 15,1.343 15,3 H 11 C 9.896,3 9,3.896 9,5 v 5 H 27 V 5 C 27,3.896 26.104,3 25,3 Z"
         id="path959" />
      <circle
         fill="#292f33"
         cx="18"
         cy="3"
         r="2"
         id="circle961" />
      <path
         fill="#99aab5"
         d="m 20,14 c 0,0.552 -0.447,1 -1,1 H 10 C 9.448,15 9,14.552 9,14 9,13.448 9.448,13 10,13 h 9 c 0.553,0 1,0.448 1,1 z m 7,4 c 0,0.552 -0.447,1 -1,1 H 10 C 9.448,19 9,18.552 9,18 9,17.448 9.448,17 10,17 h 16 c 0.553,0 1,0.448 1,1 z m 0,4 c 0,0.553 -0.447,1 -1,1 H 10 C 9.448,23 9,22.553 9,22 9,21.447 9.448,21 10,21 h 16 c 0.553,0 1,0.447 1,1 z m 0,4 c 0,0.553 -0.447,1 -1,1 H 10 C 9.448,27 9,26.553 9,26 9,25.447 9.448,25 10,25 h 16 c 0.553,0 1,0.447 1,1 z m 0,4 c 0,0.553 -0.447,1 -1,1 h -9 c -0.552,0 -1,-0.447 -1,-1 0,-0.553 0.448,-1 1,-1 h 9 c 0.553,0 1,0.447 1,1 z"
         id="path963" />
    </g>
    <g
       id="g1027"
       transform="matrix(1.0140772,0,0,1.0140772,207.09122,96.153928)">
      <path
         fill="#dd2e44"
         d="m 15,27 v 6 c 0,0 0,3 3,3 3,0 3,-3 3,-3 v -6 z"
         id="path980" />
      <path
         fill="#be1931"
         d="m 15,33 10e-4,0.037 c 1.041,-0.035 2.016,-0.274 2.632,-1.286 0.171,-0.281 0.563,-0.281 0.735,0 0.616,1.011 1.591,1.251 2.632,1.286 V 27 h -6 z"
         id="path982" />
      <path
         fill="#d99e82"
         d="m 31.954,21.619 c 0,6.276 -5,6.276 -5,6.276 h -18 c 0,0 -5,0 -5,-6.276 0,-6.724 5,-18.619 14,-18.619 9,0 14,12.895 14,18.619 z"
         id="path984" />
      <path
         fill="#f4c7b5"
         d="m 18,20 c -7,0 -10,3.527 -10,6.395 0,3.037 2.462,5.5 5.5,5.5 1.605,0 3.042,-0.664 4.049,-2.767 0.185,-0.386 0.716,-0.386 0.901,0 1.007,2.103 2.445,2.767 4.049,2.767 3.038,0 5.5,-2.463 5.5,-5.5 C 28,23.527 25,20 18,20 Z"
         id="path986" />
      <path
         fill="#292f33"
         d="m 15,22.895 c -1,1 2,4 3,4 1,0 4,-3 3,-4 -1,-1 -5,-1 -6,0 z M 13,19 c -1.1,0 -2,-0.9 -2,-2 v -2 c 0,-1.1 0.9,-2 2,-2 1.1,0 2,0.9 2,2 v 2 c 0,1.1 -0.9,2 -2,2 z m 10,0 c -1.1,0 -2,-0.9 -2,-2 v -2 c 0,-1.1 0.9,-2 2,-2 1.1,0 2,0.9 2,2 v 2 c 0,1.1 -0.9,2 -2,2 z"
         id="path988" />
      <path
         fill="#662113"
         d="M 15,3.608 C 13.941,2.199 11.681,0.881 2.828,4.2 c -4.144,1.554 -2.12,13.604 1.107,14.385 1.106,0 4.426,0 4.426,-8.852 C 8.361,9.513 8.359,9.31 8.356,9.108 10.35,6.298 12.5,4.857 15,3.608 Z M 33.172,4.2 C 24.319,0.881 22.059,2.199 21,3.608 c 2.5,1.25 4.65,2.691 6.644,5.501 -0.003,0.201 -0.005,0.404 -0.005,0.625 0,8.852 3.319,8.852 4.426,8.852 C 35.292,17.804 37.316,5.754 33.172,4.2 Z"
         id="path990" />
      <circle
         fill="#d99e82"
         cx="23.5"
         cy="25.5"
         r="0.5"
         id="circle992" />
      <circle
         fill="#d99e82"
         cx="11.5"
         cy="25.5"
         r="0.5"
         id="circle994" />
      <circle
         fill="#d99e82"
         cx="25.5"
         cy="27.5"
         r="0.5"
         id="circle996" />
      <circle
         fill="#d99e82"
         cx="10.5"
         cy="27.5"
         r="0.5"
         id="circle998" />
      <circle
         fill="#d99e82"
         cx="23"
         cy="28"
         r="1"
         id="circle1000" />
      <circle
         fill="#d99e82"
         cx="13"
         cy="28"
         r="1"
         id="circle1002" />
      <path
         fill="#380f09"
         d="M 9.883,7.232 C 9.624,6.559 9.249,5.835 8.707,5.293 8.316,4.902 7.684,4.902 7.293,5.293 6.902,5.684 6.902,6.316 7.293,6.707 7.863,7.277 8.359,8.641 8.361,9.053 8.506,8.649 9.2,7.903 9.883,7.232 Z m 16.217,0 c 0.259,-0.672 0.634,-1.397 1.176,-1.939 0.391,-0.391 1.023,-0.391 1.414,0 0.391,0.391 0.391,1.023 0,1.414 -0.57,0.57 -1.066,1.934 -1.068,2.346 C 27.477,8.649 26.783,7.903 26.1,7.232 Z"
         id="path1004" />
    </g>
    <g
       id="g1067"
       transform="matrix(1.0343441,0,0,1.0343441,159.77807,96.459697)">
      <path
         fill="#ffcc4d"
         d="m 32.348,13.999 c 0,0 3.445,-8.812 1.651,-11.998 -0.604,-1.073 -8,1.998 -10.723,5.442 0,0 -2.586,-0.86 -5.276,-0.86 -2.69,0 -5.276,0.86 -5.276,0.86 C 10.001,3.999 2.605,0.928 2.001,2.001 0.207,5.187 3.652,13.999 3.652,13.999 c -0.897,1.722 -1.233,4.345 -1.555,7.16 -0.354,3.086 0.35,5.546 0.658,6.089 0.35,0.617 2.123,2.605 4.484,4.306 3.587,2.583 8.967,3.445 10.761,3.445 1.794,0 7.174,-0.861 10.761,-3.445 2.361,-1.701 4.134,-3.689 4.484,-4.306 0.308,-0.543 1.012,-3.003 0.659,-6.089 -0.324,-2.814 -0.659,-5.438 -1.556,-7.16 z"
         id="path1029" />
      <path
         fill="#f18f26"
         d="m 2.359,2.971 c 0.2,-0.599 5.348,2.173 6.518,5.404 0,0 -3.808,2.624 -4.528,4.624 0,0 -2.99,-7.028 -1.99,-10.028 z"
         id="path1031" />
      <path
         fill="#ffcc4d"
         d="m 5.98,7.261 c 0,-1.414 5.457,2.733 4.457,3.733 -1,1 -1.255,0.72 -2.255,1.72 -1,1 -2.202,-4.453 -2.202,-5.453 z"
         id="path1033" />
      <path
         fill="#f18f26"
         d="m 33.641,2.971 c -0.2,-0.599 -5.348,2.173 -6.518,5.404 0,0 3.808,2.624 4.528,4.624 0,0 2.99,-7.028 1.99,-10.028 z"
         id="path1035" />
      <path
         fill="#ffcc4d"
         d="m 30.02,7.261 c 0,-1.414 -5.457,2.733 -4.457,3.733 1,1 1.255,0.72 2.255,1.72 1,1 2.202,-4.453 2.202,-5.453 z"
         id="path1037" />
      <path
         fill="#292f33"
         d="m 14.001,20.001 c 0,1.105 -0.896,1.999 -2,1.999 -1.104,0 -2,-0.894 -2,-1.999 0,-1.104 0.896,-1.999 2,-1.999 1.104,0 2,0.896 2,1.999 z m 11.998,0 c 0,1.105 -0.896,1.999 -2,1.999 -1.105,0 -2,-0.894 -2,-1.999 0,-1.104 0.895,-1.999 2,-1.999 1.105,0 2,0.896 2,1.999 z"
         id="path1039" />
      <path
         fill="#fee7b8"
         d="m 2.201,30.458 c -0.148,0 -0.294,-0.065 -0.393,-0.19 -0.171,-0.217 -0.134,-0.531 0.083,-0.702 0.162,-0.127 4.02,-3.12 10.648,-2.605 0.275,0.021 0.481,0.261 0.46,0.536 -0.021,0.275 -0.257,0.501 -0.537,0.46 -6.233,-0.474 -9.915,2.366 -9.951,2.395 -0.093,0.07 -0.202,0.106 -0.31,0.106 z m 8.868,-4.663 c -0.049,0 -0.1,-0.007 -0.149,-0.022 C 6.13,24.276 2.183,25.426 2.143,25.437 1.878,25.518 1.6,25.367 1.52,25.102 1.441,24.837 1.591,24.559 1.855,24.48 c 0.173,-0.052 4.286,-1.247 9.362,0.338 0.264,0.083 0.411,0.363 0.328,0.627 -0.066,0.213 -0.263,0.35 -0.476,0.35 z m 22.73,4.663 c 0.148,0 0.294,-0.065 0.393,-0.19 0.171,-0.217 0.134,-0.531 -0.083,-0.702 -0.162,-0.127 -4.02,-3.12 -10.648,-2.605 -0.275,0.021 -0.481,0.261 -0.46,0.536 0.022,0.275 0.257,0.501 0.537,0.46 6.233,-0.474 9.915,2.366 9.951,2.395 0.093,0.07 0.202,0.106 0.31,0.106 z m -8.868,-4.663 c 0.049,0 0.1,-0.007 0.149,-0.022 4.79,-1.497 8.737,-0.347 8.777,-0.336 0.265,0.081 0.543,-0.07 0.623,-0.335 0.079,-0.265 -0.071,-0.543 -0.335,-0.622 -0.173,-0.052 -4.286,-1.247 -9.362,0.338 -0.264,0.083 -0.411,0.363 -0.328,0.627 0.066,0.213 0.263,0.35 0.476,0.35 z"
         id="path1041" />
      <path
         fill="#67757f"
         d="m 24.736,30.898 c -0.097,-0.258 -0.384,-0.392 -0.643,-0.294 -0.552,0.206 -1.076,0.311 -1.559,0.311 -1.152,0 -1.561,-0.306 -2.033,-0.659 -0.451,-0.338 -0.956,-0.715 -1.99,-0.803 v -2.339 c 0,-0.276 -0.224,-0.5 -0.5,-0.5 -0.276,0 -0.5,0.224 -0.5,0.5 v 2.373 c -0.81,0.115 -1.346,0.439 -1.816,0.743 -0.568,0.367 -1.059,0.685 -2.083,0.685 -0.482,0 -1.006,-0.104 -1.558,-0.311 -0.258,-0.095 -0.547,0.035 -0.643,0.294 -0.097,0.259 0.035,0.547 0.293,0.644 0.664,0.247 1.306,0.373 1.907,0.373 1.319,0 2.014,-0.449 2.627,-0.845 0.524,-0.339 0.98,-0.631 1.848,-0.635 0.992,0.008 1.358,0.278 1.815,0.621 0.538,0.403 1.147,0.859 2.633,0.859 0.601,0 1.244,-0.126 1.908,-0.373 0.259,-0.097 0.391,-0.385 0.294,-0.644 z"
         id="path1043" />
      <path
         fill="#e75a70"
         d="m 19.4,24.807 h -2.8 c -0.64,0 -1.163,0.523 -1.163,1.163 0,0.639 0.523,1.163 1.163,1.163 h 0.237 v 0.345 c 0,0.639 0.523,1.163 1.163,1.163 0.64,0 1.163,-0.523 1.163,-1.163 V 27.133 H 19.4 c 0.639,0 1.163,-0.523 1.163,-1.163 0,-0.64 -0.524,-1.163 -1.163,-1.163 z"
         id="path1045" />
      <path
         fill="#f18f26"
         d="m 18.022,17.154 c -0.276,0 -0.5,-0.224 -0.5,-0.5 V 8.37 c 0,-0.276 0.224,-0.5 0.5,-0.5 0.276,0 0.5,0.224 0.5,0.5 v 8.284 c 0,0.277 -0.223,0.5 -0.5,0.5 z M 21,15.572 c -0.276,0 -0.5,-0.224 -0.5,-0.5 0,-2.882 1.232,-5.21 1.285,-5.308 0.13,-0.244 0.435,-0.334 0.677,-0.204 0.243,0.13 0.334,0.433 0.204,0.677 -0.012,0.021 -1.166,2.213 -1.166,4.835 0,0.276 -0.224,0.5 -0.5,0.5 z m -6,0 c -0.276,0 -0.5,-0.224 -0.5,-0.5 0,-2.623 -1.155,-4.814 -1.167,-4.835 -0.13,-0.244 -0.038,-0.546 0.205,-0.677 0.242,-0.131 0.545,-0.039 0.676,0.204 0.053,0.098 1.285,2.426 1.285,5.308 10e-4,0.276 -0.223,0.5 -0.499,0.5 z"
         id="path1047" />
    </g>
  </g>
</svg>
